<svg id="Layer_1" data-name="Layer 1" xmlns="http://www.w3.org/2000/svg" viewBox="0 0 783.04 206.4"><defs><style>.cls-1{fill:#11223a;}</style></defs><title>HMS_Logo_RGB_Blue_horizontal</title><path class="cls-1" d="M712.05,132.58v19.7h3.63V137.82a7.75,7.75,0,0,1,2.58-2.25,6.51,6.51,0,0,1,3.09-.79c2.63,0,3.94,1.65,3.94,4.93v12.57h3.62v-13a8.33,8.33,0,0,0-1.75-5.69,6.37,6.37,0,0,0-5.06-2,7.87,7.87,0,0,0-6.62,3.39v-3.19Zm-6.81,19.7V131.83l-3.63.79v13.82a7.83,7.83,0,0,1-2.58,2.25,6.47,6.47,0,0,1-3.1.79c-2.62,0-3.94-1.64-3.94-4.93V131.83l-3.62.79V145a8.32,8.32,0,0,0,1.75,5.69,6.39,6.39,0,0,0,5.07,2,7.87,7.87,0,0,0,6.62-3.39v3Zm-40.16-19.7v19.7h3.63V137.82a7.75,7.75,0,0,1,2.58-2.25,6.54,6.54,0,0,1,3.09-.79c2.63,0,3.94,1.65,3.94,4.93v12.57H682v-13a8.34,8.34,0,0,0-1.76-5.69,6.35,6.35,0,0,0-5.06-2,7.87,7.87,0,0,0-6.62,3.39v-3.19Zm-17.22,2.48h3.39v17.22h3.63V135.06h6V132h-6v-1.45a6.11,6.11,0,0,1,1.2-4.06,4.21,4.21,0,0,1,3.41-1.42,6,6,0,0,1,3.58,1.14v-3.42a8.33,8.33,0,0,0-3.82-.83,7.64,7.64,0,0,0-5.85,2.28,8.87,8.87,0,0,0-2.15,6.31V132h-2.84Zm-11.62-.36q5.55,0,5.56,7.41t-5.6,7.45q-5.55,0-5.56-7.45t5.6-7.41m7-.45q-2.34-2.66-6.91-2.66c-3,0-5.37.91-7,2.72s-2.4,4.43-2.4,7.84.78,6.09,2.35,7.86,3.86,2.66,6.91,2.66,5.37-.9,7-2.7,2.41-4.4,2.41-7.82-.78-6.13-2.35-7.9m-34.1.85h4.37v11.23q0,6.34,5.88,6.34a9.3,9.3,0,0,0,4.21-.94v-3.39a5.92,5.92,0,0,1-3.59,1.22,2.55,2.55,0,0,1-2.18-.91,4.45,4.45,0,0,1-.69-2.72V135.1h6.22V132h-6.22v-5.83l-3.63.83v5H609.6Zm-12.3.13a5.61,5.61,0,0,1,3-.68,10.13,10.13,0,0,1,3.39.55,8.52,8.52,0,0,1,2.76,1.57v-3.5a11,11,0,0,0-6-1.58,9.19,9.19,0,0,0-5.68,1.56,5.11,5.11,0,0,0-2,4.31,4.78,4.78,0,0,0,.62,2.54,5,5,0,0,0,1.61,1.66,10,10,0,0,0,2.21,1.06c.8.28,1.59.54,2.38.77a23.16,23.16,0,0,1,2.19.77,4.53,4.53,0,0,1,1.61,1,2.22,2.22,0,0,1,.61,1.62,2.33,2.33,0,0,1-1.12,2.05,5.59,5.59,0,0,1-3.13.75,12,12,0,0,1-3.71-.61,10.42,10.42,0,0,1-3.15-1.64V151a13.38,13.38,0,0,0,6.78,1.69,9.23,9.23,0,0,0,5.75-1.57,5.45,5.45,0,0,0-.18-8.87,9.9,9.9,0,0,0-2.18-1.1c-.79-.29-1.58-.54-2.38-.75a19.85,19.85,0,0,1-2.21-.71,4.74,4.74,0,0,1-1.62-1,2,2,0,0,1-.61-1.53,2.19,2.19,0,0,1,1.06-1.92m-20.74,13.7a2.71,2.71,0,0,1-.85-2.13,3.08,3.08,0,0,1,2-2.94,16.58,16.58,0,0,1,6.41-.92v4.37a6.32,6.32,0,0,1-2.29,1.74,6.86,6.86,0,0,1-2.88.63,3.52,3.52,0,0,1-2.42-.75m-2.86,2.22a6.21,6.21,0,0,0,4.42,1.52,8.31,8.31,0,0,0,3.56-.77,6.77,6.77,0,0,0,2.66-2.18v2.56h3.39V139.16a7.48,7.48,0,0,0-2-5.6,7.72,7.72,0,0,0-5.63-2,12,12,0,0,0-6.74,2v3.67a10.79,10.79,0,0,1,3.09-1.86,9.24,9.24,0,0,1,3.33-.67,4.3,4.3,0,0,1,3.25,1.18,4.74,4.74,0,0,1,1.13,3.39v1.15q-6.15,0-9.11,1.61a5.86,5.86,0,0,0-1.34,9.12M566.12,128a2.07,2.07,0,0,0,.65-1.61,2.15,2.15,0,0,0-.65-1.64,2.42,2.42,0,0,0-1.71-.61,2.37,2.37,0,0,0-1.7.61,2.18,2.18,0,0,0-.63,1.64,2.09,2.09,0,0,0,.63,1.61,2.36,2.36,0,0,0,1.7.59,2.4,2.4,0,0,0,1.71-.59m-3.52,24.79a7.25,7.25,0,0,1-.93,4.1,3.25,3.25,0,0,1-2.86,1.34,6.64,6.64,0,0,1-2.64-.55v3.19a11,11,0,0,0,3.11.47q6.94,0,6.94-8.43V131.79l-3.62.83Zm-18.25-30.66-3.59.83v29.32h3.59v-7.14l3.43-3.38L554,152.28h4.41l-8.27-12.93,7.49-7.37h-4.45l-8.87,9Zm-19.86,30.15h3.62V138.76a8.17,8.17,0,0,1,2.43-2.66,5.38,5.38,0,0,1,3.05-.92,5.65,5.65,0,0,1,2.6.59v-3.55a5.72,5.72,0,0,0-2.2-.39,6.87,6.87,0,0,0-6.07,3.62v-3.66l-3.43.79Zm-10.44,0h3.62V131.79l-3.62.83ZM517.58,128a2.07,2.07,0,0,0,.65-1.61,2.15,2.15,0,0,0-.65-1.64,2.46,2.46,0,0,0-1.72-.61,2.35,2.35,0,0,0-1.69.61,2.18,2.18,0,0,0-.64,1.64,2.1,2.1,0,0,0,.64,1.61,2.34,2.34,0,0,0,1.69.59,2.45,2.45,0,0,0,1.72-.59m-26.35,4,7.89,20.3h2.95L510,132h-3.86l-5.48,15.61L495.21,132Zm-20.33.6v19.7h3.63V137.82a7.75,7.75,0,0,1,2.58-2.25,6.51,6.51,0,0,1,3.09-.79c2.63,0,3.94,1.65,3.94,4.93v12.57h3.63v-13a8.34,8.34,0,0,0-1.76-5.69,6.37,6.37,0,0,0-5.06-2,7.87,7.87,0,0,0-6.62,3.39v-3.19Zm-23.48,0v19.7H451V137.82a8,8,0,0,1,2.58-2.25,6.58,6.58,0,0,1,3.1-.79c2.62,0,3.94,1.65,3.94,4.93v12.57h3.62v-13a8.33,8.33,0,0,0-1.75-5.69,6.38,6.38,0,0,0-5.06-2,7.85,7.85,0,0,0-6.62,3.39v-3.19Zm-17.79,16.35a2.68,2.68,0,0,1-.85-2.13,3.08,3.08,0,0,1,2-2.94,16.56,16.56,0,0,1,6.4-.92v4.37a6.28,6.28,0,0,1-2.28,1.74,6.86,6.86,0,0,1-2.88.63,3.52,3.52,0,0,1-2.42-.75m-2.86,2.22a6.18,6.18,0,0,0,4.41,1.52,8.32,8.32,0,0,0,3.57-.77,6.77,6.77,0,0,0,2.66-2.18v2.56h3.39V139.16a7.48,7.48,0,0,0-2-5.6,7.73,7.73,0,0,0-5.64-2,12,12,0,0,0-6.73,2v3.67a10.65,10.65,0,0,1,3.09-1.86,9.24,9.24,0,0,1,3.33-.67,4.3,4.3,0,0,1,3.25,1.18,4.73,4.73,0,0,1,1.12,3.39v1.15q-6.15,0-9.1,1.61a5.84,5.84,0,0,0-1.34,9.12m-31.84-16.37v-3l-3.43.79v19.7h3.63v-14.7a7.39,7.39,0,0,1,2.3-2.09,5.56,5.56,0,0,1,2.7-.71c2.55,0,3.83,1.65,3.83,4.93v12.57h3.62v-13a10.89,10.89,0,0,0-.12-1.57,7.08,7.08,0,0,1,2.31-2.17,5.58,5.58,0,0,1,2.81-.75c2.52,0,3.79,1.65,3.79,4.93v12.57H420v-13a8.69,8.69,0,0,0-1.65-5.69,5.85,5.85,0,0,0-4.77-2,7.84,7.84,0,0,0-6.78,3.55,5.68,5.68,0,0,0-2.18-2.64,6.23,6.23,0,0,0-3.41-.91,7.43,7.43,0,0,0-6.27,3.19"/><path class="cls-1" d="M617.13,108.4a8.59,8.59,0,0,1-1.38-5.28,8.46,8.46,0,0,1,1.46-5.38,5.19,5.19,0,0,1,4.33-1.83A6.39,6.39,0,0,1,626.35,98v9.62a6.93,6.93,0,0,1-2.34,1.88,6.47,6.47,0,0,1-2.9.68,4.69,4.69,0,0,1-4-1.82m-2.82-12.86c-1.53,1.88-2.3,4.48-2.3,7.82q0,4.77,2.16,7.41a7.43,7.43,0,0,0,6.07,2.64,7.51,7.51,0,0,0,6.11-2.8v2.44a6.54,6.54,0,0,1-1.54,4.65,5.68,5.68,0,0,1-4.37,1.66,10.86,10.86,0,0,1-3.69-.67,10.68,10.68,0,0,1-3.29-1.93v3.66a12.84,12.84,0,0,0,3.41,1.52,14.05,14.05,0,0,0,3.8.53,9.22,9.22,0,0,0,6.84-2.48,9.4,9.4,0,0,0,2.47-6.9V92.92l-3.08.71-.16,1.85a7,7,0,0,0-2.6-2,8.59,8.59,0,0,0-9.83,2.09m-15.54.29q5.55,0,5.55,7.41t-5.59,7.45q-5.57,0-5.56-7.45t5.6-7.41m7-.45c-1.56-1.77-3.87-2.66-6.91-2.66s-5.38.91-7,2.72-2.4,4.43-2.4,7.84.78,6.09,2.34,7.86,3.87,2.66,6.92,2.66,5.37-.9,7-2.7,2.41-4.4,2.41-7.82-.79-6.13-2.35-7.9m-38.56,9.19h11.08l.63-3.31H567.8Zm-13-8.2a5.56,5.56,0,0,1,3-.7,10.13,10.13,0,0,1,3.39.56,8.14,8.14,0,0,1,2.76,1.57V94.3a10.85,10.85,0,0,0-6-1.58,9.16,9.16,0,0,0-5.67,1.56,5.1,5.1,0,0,0-2,4.31,4.8,4.8,0,0,0,.61,2.54,5.24,5.24,0,0,0,1.62,1.66,10.41,10.41,0,0,0,2.2,1.06c.8.28,1.6.53,2.39.77a22.93,22.93,0,0,1,2.18.77,4.67,4.67,0,0,1,1.62,1,2.22,2.22,0,0,1,.61,1.62,2.35,2.35,0,0,1-1.12,2,5.69,5.69,0,0,1-3.14.74,12,12,0,0,1-3.7-.6,10.42,10.42,0,0,1-3.15-1.64v3.51a13.38,13.38,0,0,0,6.78,1.69,9.19,9.19,0,0,0,5.75-1.58,5.3,5.3,0,0,0,2.05-4.45,5.42,5.42,0,0,0-.61-2.68,5.16,5.16,0,0,0-1.62-1.73,10.9,10.9,0,0,0-2.18-1.11c-.79-.28-1.59-.53-2.39-.74a20.55,20.55,0,0,1-2.21-.71,4.85,4.85,0,0,1-1.61-1,2,2,0,0,1-.61-1.53,2.15,2.15,0,0,1,1.06-1.91m-13.44,17h3.63V92.92l-3.63.82Zm3.53-24.27a2.07,2.07,0,0,0,.65-1.62,2.13,2.13,0,0,0-.65-1.64,2.42,2.42,0,0,0-1.71-.61,2.37,2.37,0,0,0-1.7.61,2.19,2.19,0,0,0-.63,1.64,2.13,2.13,0,0,0,.63,1.62,2.41,2.41,0,0,0,1.7.59,2.45,2.45,0,0,0,1.71-.59m-14.14,19.48a4.83,4.83,0,0,1-4.24,2.07,4.75,4.75,0,0,1-4.08-1.89,9.07,9.07,0,0,1-1.4-5.44,8.8,8.8,0,0,1,1.5-5.58,5.31,5.31,0,0,1,4.41-1.87A6.73,6.73,0,0,1,531,97.72a21.89,21.89,0,0,1,.56,4.85,10.64,10.64,0,0,1-1.44,6.05M521,91.11l5.72-2.06A22.6,22.6,0,0,1,530,94.49a7,7,0,0,0-4.77-1.69,7.57,7.57,0,0,0-6.26,2.87q-2.3,2.88-2.29,7.89t2.34,7.6c1.57,1.76,3.83,2.64,6.8,2.64s5.46-1,7.08-2.9,2.42-4.76,2.42-8.49a22.75,22.75,0,0,0-5.12-14.62L533,86.73V84.09l-4.69,1.7a21.83,21.83,0,0,0-2.87-2.53l-4,.91a27.54,27.54,0,0,1,3.43,2.88L521,88.46ZM507.71,97a6.86,6.86,0,0,1,1.26,4.21H499q.68-5.55,5.25-5.55A4.26,4.26,0,0,1,507.71,97M488,110.06a2.71,2.71,0,0,1-.85-2.13,3,3,0,0,1,2-2.9,16.45,16.45,0,0,1,6.34-1,14.55,14.55,0,0,0,.59,3.78,6.41,6.41,0,0,1-2.44,2.17,7,7,0,0,1-3.23.79,3.57,3.57,0,0,1-2.43-.75m3.41-17.34a12.33,12.33,0,0,0-6.62,2v3.66a12,12,0,0,1,3.07-1.85,8.67,8.67,0,0,1,3.2-.67,4.27,4.27,0,0,1,3.29,1.22,5.07,5.07,0,0,1,1.12,3.55v1q-6.1,0-9,1.65a5.81,5.81,0,0,0-1.27,9.08,6.38,6.38,0,0,0,4.51,1.52,9.52,9.52,0,0,0,4.15-.94,9.76,9.76,0,0,0,3.34-2.64q2.28,3.59,7.64,3.58a12,12,0,0,0,6.74-1.89v-3.63a9.66,9.66,0,0,1-6.35,2.41,5.89,5.89,0,0,1-4.55-1.66,8.06,8.06,0,0,1-1.67-5.2h13.51a12.49,12.49,0,0,0,0-1.38q0-4.8-2.05-7.27a8.5,8.5,0,0,0-12.8,1q-1.62-3.44-6.27-3.43m-29.95,1v19.71h3.63V99a7.85,7.85,0,0,1,2.58-2.25,6.47,6.47,0,0,1,3.1-.79c2.62,0,3.94,1.64,3.94,4.93v12.57h3.62v-13a8.4,8.4,0,0,0-1.75-5.69,6.39,6.39,0,0,0-5.07-2,7.87,7.87,0,0,0-6.62,3.39V92.92ZM446.2,96.37a5.56,5.56,0,0,1,3-.7,10.13,10.13,0,0,1,3.39.56,8.34,8.34,0,0,1,2.76,1.57V94.3a10.88,10.88,0,0,0-6-1.58,9.19,9.19,0,0,0-5.68,1.56,5.12,5.12,0,0,0-2,4.31,4.9,4.9,0,0,0,.61,2.54,5.24,5.24,0,0,0,1.62,1.66,10.49,10.49,0,0,0,2.21,1.06c.8.28,1.59.53,2.38.77a23.16,23.16,0,0,1,2.19.77,4.77,4.77,0,0,1,1.62,1,2.25,2.25,0,0,1,.6,1.62,2.33,2.33,0,0,1-1.12,2,5.68,5.68,0,0,1-3.13.74,11.89,11.89,0,0,1-3.7-.6,10.36,10.36,0,0,1-3.16-1.64v3.51a13.38,13.38,0,0,0,6.78,1.69,9.17,9.17,0,0,0,5.75-1.58,6,6,0,0,0,1.44-7.13,5.14,5.14,0,0,0-1.61-1.73,11,11,0,0,0-2.19-1.11c-.79-.28-1.59-.53-2.39-.74a20.35,20.35,0,0,1-2.2-.71,4.9,4.9,0,0,1-1.62-1,2.06,2.06,0,0,1-.61-1.53,2.16,2.16,0,0,1,1.07-1.91m-17.66-6.21,4.89-6.23h-4.18l-4,6.23Zm7.84,23.25V93l-3.62.78v13.83a7.83,7.83,0,0,1-2.58,2.25,6.46,6.46,0,0,1-3.09.79q-3.94,0-3.94-4.92V93l-3.63.78v12.38a8.32,8.32,0,0,0,1.75,5.69,6.39,6.39,0,0,0,5.07,2,7.87,7.87,0,0,0,6.62-3.39v3ZM391.5,85.82v27.59h4V101h13v12.42h4V85.82h-4V97.57h-13V85.82Z"/><path class="cls-1" d="M54.12,152.28H75.44V113h31v39.26h21.31V54.12H106.43v39h-31v-39H54.12ZM323.35,91.42c-6.73-2.52-11.64-4.62-11.64-10.66,0-4.9,4.21-8.69,13.32-8.69,10.8,0,21.17,3.65,28.89,7.15v-20A66.36,66.36,0,0,0,323.07,52c-19.77,0-33.23,12.62-33.23,28.47,0,15.14,8.83,23.83,24,29.3l12.48,4.49c6.88,2.52,11.08,5.32,11.08,11.21,0,6.45-5.75,9.12-14.44,9.12-12.76,0-24.54-4.49-31.41-7.71v20.61a76.27,76.27,0,0,0,31.27,7.15c24.54,0,36.46-13.18,36.46-28.6s-8.7-24.4-24-30.15ZM223,63.94l31.41,31.13v57.21h21.88V85.81L238.1,48ZM146,85.81v66.47h21.87V95.07L184,79.22l16.12,15.85v57.21H222V85.81L184,48Z"/></svg>