<svg id="Layer_1" data-name="Layer 1" xmlns="http://www.w3.org/2000/svg" viewBox="0 0 413.37 206.4"><defs><style>.cls-1{fill:#11223a;}</style></defs><title>HMS_Logo_RGB_Blue</title><path class="cls-1" d="M54.12,152.28H75.44V113h31v39.26h21.31V54.12H106.43v39h-31v-39H54.12ZM323.35,91.42c-6.73-2.52-11.64-4.62-11.64-10.66,0-4.9,4.21-8.69,13.32-8.69,10.8,0,21.17,3.65,28.89,7.15v-20A66.36,66.36,0,0,0,323.07,52c-19.77,0-33.23,12.62-33.23,28.47,0,15.14,8.83,23.83,24,29.3l12.48,4.49c6.88,2.52,11.08,5.32,11.08,11.21,0,6.45-5.75,9.12-14.44,9.12-12.76,0-24.54-4.49-31.41-7.71v20.61a76.27,76.27,0,0,0,31.27,7.15c24.54,0,36.46-13.18,36.46-28.6s-8.7-24.4-24-30.15ZM223,63.94l31.41,31.13v57.21h21.88V85.81L238.1,48ZM146,85.81v66.47h21.87V95.07L184,79.22l16.12,15.85v57.21H222V85.81L184,48Z"/></svg>